<?xml version="1.0" encoding="UTF-8" ?>
<!DOCTYPE svg PUBLIC "-//W3C//DTD SVG 1.1//EN" "http://www.w3.org/Graphics/SVG/1.1/DTD/svg11.dtd">
<svg width="775pt" height="627pt" viewBox="0 0 775 627" version="1.1" xmlns="http://www.w3.org/2000/svg">
<g id="#ffffffff">
<path fill="#ffffff" stroke="#ffffff" stroke-width="0.09375" opacity="1.00" d=" M 367.10 210.37 C 377.77 210.55 388.49 209.98 399.12 211.25 C 404.56 211.87 409.78 214.85 412.54 219.68 C 409.61 223.25 405.85 226.36 401.18 227.21 C 389.91 229.34 378.36 228.51 366.96 228.63 C 367.09 222.55 366.89 216.46 367.10 210.37 Z" />
</g>
<g id="#231f20ff">
<path fill="#231f20" stroke="#231f20" stroke-width="0.09375" opacity="1.00" d=" M 103.90 32.99 C 110.21 28.23 118.13 26.09 125.97 26.14 C 293.65 26.10 461.32 26.14 629.00 26.12 C 635.68 26.07 642.56 25.96 648.93 28.29 C 653.53 29.86 657.56 32.66 661.20 35.82 C 667.25 41.82 671.28 49.95 671.75 58.51 C 672.30 66.81 671.86 75.13 671.91 83.44 C 671.30 76.00 669.24 68.50 664.41 62.66 C 657.48 53.76 646.11 49.12 634.96 49.40 C 465.97 49.38 296.97 49.40 127.97 49.38 C 121.01 49.39 113.85 50.33 107.71 53.81 C 98.58 58.72 92.17 67.93 90.12 78.03 C 89.50 71.69 89.69 65.32 89.69 58.96 C 90.18 48.75 95.63 38.96 103.90 32.99 Z" />
<path fill="#231f20" stroke="#231f20" stroke-width="0.09375" opacity="1.00" d=" M 331.85 159.90 C 333.13 159.06 334.12 157.26 335.89 157.65 C 356.90 157.75 377.92 157.49 398.92 157.89 C 404.94 158.18 410.99 158.50 416.93 159.59 C 430.14 162.26 441.17 172.19 446.60 184.34 C 450.97 194.52 451.78 205.89 450.78 216.83 C 448.85 211.83 447.69 206.52 445.01 201.84 C 440.26 193.27 432.77 186.10 423.60 182.46 C 415.17 179.01 405.89 179.25 396.96 178.73 C 377.31 178.25 357.65 178.61 338.00 178.44 C 335.75 178.22 333.66 179.06 331.75 180.15 C 332.00 173.40 331.80 166.65 331.85 159.90 Z" />
<path fill="#231f20" stroke="#231f20" stroke-width="0.09375" opacity="1.00" d=" M 412.54 219.68 C 418.53 229.38 414.28 244.49 402.74 247.63 C 391.01 250.42 378.80 249.23 366.84 249.47 C 366.94 242.52 366.73 235.57 366.96 228.63 C 378.36 228.51 389.91 229.34 401.18 227.21 C 405.85 226.36 409.61 223.25 412.54 219.68 Z" />
<path fill="#231f20" stroke="#231f20" stroke-width="0.09375" opacity="1.00" d=" M 160.85 381.35 C 307.96 381.43 455.07 381.34 602.18 381.40 L 602.66 381.41 C 602.54 389.18 602.60 396.95 602.65 404.73 C 455.35 404.83 308.05 404.68 160.74 404.80 C 160.72 396.99 160.52 389.16 160.85 381.35 Z" />
<path fill="#231f20" stroke="#231f20" stroke-width="0.09375" opacity="1.00" d=" M 288.00 521.00 C 307.34 521.03 326.69 520.94 346.04 521.04 C 345.97 528.69 345.99 536.34 346.00 543.99 C 326.66 544.01 307.33 543.99 288.00 544.00 C 288.00 551.66 288.00 559.33 288.00 567.00 C 282.66 567.00 277.33 566.99 272.00 567.01 C 271.99 574.66 272.03 582.31 271.97 589.96 C 269.65 590.00 267.34 590.05 265.02 590.11 C 265.00 582.38 264.95 574.66 265.05 566.94 C 267.36 566.98 269.68 566.99 272.00 567.01 C 271.99 559.34 272.00 551.67 272.00 544.00 C 277.33 544.00 282.67 544.00 288.00 544.00 C 288.00 536.33 288.00 528.66 288.00 521.00 Z" />
<path fill="#231f20" stroke="#231f20" stroke-width="0.09375" opacity="1.00" d=" M 416.99 521.08 C 437.01 520.94 457.04 520.96 477.06 521.07 C 476.93 528.71 477.04 536.35 477.00 544.00 C 482.33 544.00 487.67 544.00 493.00 544.00 C 492.98 551.66 493.05 559.32 492.97 566.99 C 494.96 566.98 496.95 566.97 498.96 566.94 C 499.03 574.66 499.00 582.38 498.98 590.10 C 496.99 590.03 495.02 589.97 493.04 589.91 C 492.94 582.27 493.06 574.64 492.95 567.01 C 487.64 566.99 482.33 567.02 477.02 566.97 C 476.95 559.31 477.03 551.66 476.99 544.00 C 457.00 544.00 437.00 544.00 417.00 544.00 C 416.99 536.36 417.01 528.72 416.99 521.08 Z" />
</g>
<g id="#808080ff">
<path fill="#808080" stroke="#808080" stroke-width="0.09375" opacity="1.00" d=" M 107.71 53.81 C 113.85 50.33 121.01 49.39 127.97 49.38 C 296.97 49.40 465.97 49.38 634.96 49.40 C 646.11 49.12 657.48 53.76 664.41 62.66 C 669.24 68.50 671.30 76.00 671.91 83.44 C 672.12 195.30 671.94 307.18 672.00 419.06 C 671.90 426.10 672.34 433.17 671.46 440.18 C 669.81 451.03 662.67 460.94 652.76 465.75 C 646.74 469.01 639.77 469.71 633.03 469.64 C 561.02 469.62 489.01 469.68 416.99 469.61 C 417.00 486.76 417.01 503.92 416.99 521.08 C 417.01 528.72 416.99 536.36 417.00 544.00 C 437.00 544.00 457.00 544.00 476.99 544.00 C 477.03 551.66 476.95 559.31 477.02 566.97 C 482.33 567.02 487.64 566.99 492.95 567.01 C 493.06 574.64 492.94 582.27 493.04 589.91 C 495.02 589.97 496.99 590.03 498.98 590.10 C 498.99 598.05 499.04 606.00 498.97 613.96 C 421.00 614.11 343.02 613.90 265.05 614.06 C 264.94 606.07 265.00 598.09 265.02 590.11 C 267.34 590.05 269.65 590.00 271.97 589.96 C 272.03 582.31 271.99 574.66 272.00 567.01 C 277.33 566.99 282.66 567.00 288.00 567.00 C 288.00 559.33 288.00 551.66 288.00 544.00 C 307.33 543.99 326.66 544.01 346.00 543.99 C 345.99 536.34 345.97 528.69 346.04 521.04 C 345.92 503.90 346.06 486.75 345.95 469.60 C 275.31 469.69 204.66 469.61 134.02 469.64 C 129.00 469.64 123.96 469.76 118.99 469.06 C 105.52 467.14 93.93 456.41 90.68 443.26 C 88.32 432.34 90.26 421.09 89.09 410.05 C 89.01 308.70 89.08 207.36 89.06 106.02 C 89.09 90.33 88.90 74.62 89.69 58.96 C 89.69 65.32 89.50 71.69 90.12 78.03 C 92.17 67.93 98.58 58.72 107.71 53.81 M 161.09 123.24 C 160.78 209.27 161.26 295.32 160.85 381.35 C 160.52 389.16 160.72 396.99 160.74 404.80 C 308.05 404.68 455.35 404.83 602.65 404.73 C 602.60 396.95 602.54 389.18 602.66 381.41 L 602.18 381.40 C 602.23 295.35 602.28 209.30 602.16 123.25 C 455.13 123.22 308.11 123.24 161.09 123.24 Z" />
<path fill="#808080" stroke="#808080" stroke-width="0.09375" opacity="1.00" d=" M 331.75 180.15 C 333.66 179.06 335.75 178.22 338.00 178.44 C 357.65 178.61 377.31 178.25 396.96 178.73 C 405.89 179.25 415.17 179.01 423.60 182.46 C 432.77 186.10 440.26 193.27 445.01 201.84 C 447.69 206.52 448.85 211.83 450.78 216.83 C 451.40 229.84 451.97 243.70 445.60 255.56 C 439.14 268.44 426.18 277.89 411.87 279.81 C 397.05 281.83 382.05 281.33 367.13 281.34 C 366.91 300.20 367.01 319.08 366.73 337.94 C 366.85 339.57 365.25 340.42 364.33 341.51 C 354.43 341.33 344.52 341.26 334.62 341.55 C 333.21 340.34 331.36 339.11 331.85 336.96 C 331.53 284.69 331.58 232.42 331.75 180.15 M 367.10 210.37 C 366.89 216.46 367.09 222.55 366.96 228.63 C 366.73 235.57 366.94 242.52 366.84 249.47 C 378.80 249.23 391.01 250.42 402.74 247.63 C 414.28 244.49 418.53 229.38 412.54 219.68 C 409.78 214.85 404.56 211.87 399.12 211.25 C 388.49 209.98 377.77 210.55 367.10 210.37 Z" />
</g>
</svg>
